<mxfile host="app.diagrams.net" modified="2024-01-25T23:03:21.495Z" agent="Mozilla/5.0 (Windows NT 10.0; Win64; x64) AppleWebKit/537.36 (KHTML, like Gecko) Chrome/120.0.0.0 Safari/537.36" etag="RIshljzSqzD97fvsdN9i" version="23.0.2" type="device">
  <diagram name="Page-1" id="e7e014a7-5840-1c2e-5031-d8a46d1fe8dd">
    <mxGraphModel dx="1257" dy="657" grid="1" gridSize="10" guides="1" tooltips="1" connect="1" arrows="1" fold="1" page="1" pageScale="1" pageWidth="1169" pageHeight="826" background="none" math="0" shadow="0">
      <root>
        <mxCell id="0" />
        <mxCell id="1" parent="0" />
        <mxCell id="Ipxi1V8DxF3I4K90bKjH-41" value="" style="rounded=1;whiteSpace=wrap;html=1;fillColor=#B9E0A5;strokeColor=#82b366;" vertex="1" parent="1">
          <mxGeometry x="90" y="180" width="370" height="60" as="geometry" />
        </mxCell>
        <mxCell id="Ipxi1V8DxF3I4K90bKjH-42" value="&lt;h1&gt;User Interface Layer&lt;/h1&gt;" style="text;html=1;strokeColor=none;fillColor=none;spacing=5;spacingTop=-20;whiteSpace=wrap;overflow=hidden;rounded=0;" vertex="1" parent="1">
          <mxGeometry x="90" y="180" width="370" height="60" as="geometry" />
        </mxCell>
        <mxCell id="Ipxi1V8DxF3I4K90bKjH-43" value="" style="endArrow=none;html=1;rounded=0;strokeWidth=5;" edge="1" parent="1">
          <mxGeometry width="50" height="50" relative="1" as="geometry">
            <mxPoint x="460" y="209.29" as="sourcePoint" />
            <mxPoint x="530" y="209.29" as="targetPoint" />
          </mxGeometry>
        </mxCell>
        <mxCell id="Ipxi1V8DxF3I4K90bKjH-47" value="" style="rounded=0;whiteSpace=wrap;html=1;fillColor=#d5e8d4;strokeColor=#82b366;" vertex="1" parent="1">
          <mxGeometry x="525" y="170" width="155" height="70" as="geometry" />
        </mxCell>
        <mxCell id="Ipxi1V8DxF3I4K90bKjH-48" value="&lt;h1 style=&quot;font-size: 17px;&quot;&gt;&lt;ul&gt;&lt;li&gt;Menu For User&lt;/li&gt;&lt;li&gt;Create Board&lt;/li&gt;&lt;li&gt;Exit Application&lt;/li&gt;&lt;/ul&gt;&lt;/h1&gt;" style="text;html=1;strokeColor=none;fillColor=none;spacing=5;spacingTop=-20;whiteSpace=wrap;overflow=hidden;rounded=0;" vertex="1" parent="1">
          <mxGeometry x="507.5" y="170" width="190" height="120" as="geometry" />
        </mxCell>
        <mxCell id="Ipxi1V8DxF3I4K90bKjH-49" value="" style="shape=flexArrow;endArrow=classic;html=1;rounded=0;exitX=0.5;exitY=1;exitDx=0;exitDy=0;fillColor=#f8cecc;strokeColor=#b85450;" edge="1" parent="1" source="Ipxi1V8DxF3I4K90bKjH-42">
          <mxGeometry width="50" height="50" relative="1" as="geometry">
            <mxPoint x="274.6" y="250" as="sourcePoint" />
            <mxPoint x="274.6" y="280" as="targetPoint" />
          </mxGeometry>
        </mxCell>
        <mxCell id="Ipxi1V8DxF3I4K90bKjH-50" value="" style="rounded=1;whiteSpace=wrap;html=1;fillColor=#dae8fc;strokeColor=#6c8ebf;" vertex="1" parent="1">
          <mxGeometry x="90" y="290" width="370" height="60" as="geometry" />
        </mxCell>
        <mxCell id="Ipxi1V8DxF3I4K90bKjH-51" value="&lt;h1&gt;Presentation Layer&lt;/h1&gt;" style="text;html=1;strokeColor=none;fillColor=none;spacing=5;spacingTop=-20;whiteSpace=wrap;overflow=hidden;rounded=0;" vertex="1" parent="1">
          <mxGeometry x="90" y="290" width="370" height="60" as="geometry" />
        </mxCell>
        <mxCell id="Ipxi1V8DxF3I4K90bKjH-52" value="" style="endArrow=none;html=1;rounded=0;strokeWidth=5;" edge="1" parent="1">
          <mxGeometry width="50" height="50" relative="1" as="geometry">
            <mxPoint x="460" y="319.6" as="sourcePoint" />
            <mxPoint x="530" y="319.6" as="targetPoint" />
          </mxGeometry>
        </mxCell>
        <mxCell id="Ipxi1V8DxF3I4K90bKjH-54" value="" style="rounded=0;whiteSpace=wrap;html=1;fillColor=#dae8fc;strokeColor=#6c8ebf;" vertex="1" parent="1">
          <mxGeometry x="530" y="290" width="150" height="70" as="geometry" />
        </mxCell>
        <mxCell id="Ipxi1V8DxF3I4K90bKjH-55" value="&lt;h1&gt;&lt;ul style=&quot;font-size: 17px;&quot;&gt;&lt;li&gt;Display Board Without Functionality&lt;/li&gt;&lt;/ul&gt;&lt;/h1&gt;" style="text;html=1;strokeColor=none;fillColor=none;spacing=5;spacingTop=-20;whiteSpace=wrap;overflow=hidden;rounded=0;" vertex="1" parent="1">
          <mxGeometry x="507.5" y="290" width="190" height="120" as="geometry" />
        </mxCell>
        <mxCell id="Ipxi1V8DxF3I4K90bKjH-56" value="" style="shape=flexArrow;endArrow=classic;html=1;rounded=0;exitX=0.5;exitY=1;exitDx=0;exitDy=0;fillColor=#f8cecc;strokeColor=#b85450;" edge="1" parent="1">
          <mxGeometry width="50" height="50" relative="1" as="geometry">
            <mxPoint x="275" y="350" as="sourcePoint" />
            <mxPoint x="274.6" y="390" as="targetPoint" />
          </mxGeometry>
        </mxCell>
        <mxCell id="Ipxi1V8DxF3I4K90bKjH-57" value="" style="rounded=1;whiteSpace=wrap;html=1;fillColor=#e1d5e7;strokeColor=#9673a6;" vertex="1" parent="1">
          <mxGeometry x="90" y="400" width="370" height="60" as="geometry" />
        </mxCell>
        <mxCell id="Ipxi1V8DxF3I4K90bKjH-58" value="&lt;h1&gt;Functionality Layer&lt;/h1&gt;" style="text;html=1;strokeColor=none;fillColor=none;spacing=5;spacingTop=-20;whiteSpace=wrap;overflow=hidden;rounded=0;" vertex="1" parent="1">
          <mxGeometry x="90" y="400" width="370" height="60" as="geometry" />
        </mxCell>
        <mxCell id="Ipxi1V8DxF3I4K90bKjH-60" value="" style="rounded=0;whiteSpace=wrap;html=1;fillColor=#e1d5e7;strokeColor=#9673a6;" vertex="1" parent="1">
          <mxGeometry x="530" y="400" width="150" height="80" as="geometry" />
        </mxCell>
        <mxCell id="Ipxi1V8DxF3I4K90bKjH-61" value="" style="endArrow=none;html=1;rounded=0;strokeWidth=5;" edge="1" parent="1">
          <mxGeometry width="50" height="50" relative="1" as="geometry">
            <mxPoint x="460" y="429.6" as="sourcePoint" />
            <mxPoint x="530" y="429.6" as="targetPoint" />
          </mxGeometry>
        </mxCell>
        <mxCell id="Ipxi1V8DxF3I4K90bKjH-62" value="&lt;h1 style=&quot;font-size: 17px;&quot;&gt;&lt;ul&gt;&lt;li&gt;Hidden Atoms&lt;/li&gt;&lt;li&gt;&lt;span style=&quot;background-color: initial; font-weight: normal;&quot;&gt;Circle Influence&lt;/span&gt;&lt;br&gt;&lt;/li&gt;&lt;li&gt;&lt;span style=&quot;background-color: initial; font-weight: normal;&quot;&gt;Ray Appearance&lt;/span&gt;&lt;/li&gt;&lt;/ul&gt;&lt;/h1&gt;" style="text;html=1;strokeColor=none;fillColor=none;spacing=5;spacingTop=-20;whiteSpace=wrap;overflow=hidden;rounded=0;" vertex="1" parent="1">
          <mxGeometry x="510" y="400" width="190" height="120" as="geometry" />
        </mxCell>
        <mxCell id="Ipxi1V8DxF3I4K90bKjH-63" value="" style="shape=flexArrow;endArrow=classic;html=1;rounded=0;exitX=0.5;exitY=1;exitDx=0;exitDy=0;fillColor=#f8cecc;strokeColor=#b85450;width=9.6;endSize=5.4479999999999995;" edge="1" parent="1">
          <mxGeometry width="50" height="50" relative="1" as="geometry">
            <mxPoint x="275" y="460" as="sourcePoint" />
            <mxPoint x="274.6" y="500" as="targetPoint" />
          </mxGeometry>
        </mxCell>
        <mxCell id="Ipxi1V8DxF3I4K90bKjH-64" value="" style="rounded=1;whiteSpace=wrap;html=1;fillColor=#f8cecc;strokeColor=#b85450;" vertex="1" parent="1">
          <mxGeometry x="90" y="510" width="370" height="60" as="geometry" />
        </mxCell>
        <mxCell id="Ipxi1V8DxF3I4K90bKjH-65" value="&lt;h1&gt;Algorithm and Database Layer&lt;/h1&gt;" style="text;html=1;strokeColor=none;fillColor=none;spacing=5;spacingTop=-20;whiteSpace=wrap;overflow=hidden;rounded=0;" vertex="1" parent="1">
          <mxGeometry x="90" y="510" width="370" height="120" as="geometry" />
        </mxCell>
        <mxCell id="Ipxi1V8DxF3I4K90bKjH-66" value="" style="endArrow=none;html=1;rounded=0;strokeWidth=5;" edge="1" parent="1">
          <mxGeometry width="50" height="50" relative="1" as="geometry">
            <mxPoint x="460" y="539.52" as="sourcePoint" />
            <mxPoint x="530" y="539.52" as="targetPoint" />
          </mxGeometry>
        </mxCell>
        <mxCell id="Ipxi1V8DxF3I4K90bKjH-67" value="" style="rounded=0;whiteSpace=wrap;html=1;fillColor=#f8cecc;strokeColor=#b85450;" vertex="1" parent="1">
          <mxGeometry x="530" y="510" width="150" height="70" as="geometry" />
        </mxCell>
        <mxCell id="Ipxi1V8DxF3I4K90bKjH-68" value="&lt;h1 style=&quot;&quot;&gt;&lt;ul style=&quot;&quot;&gt;&lt;li style=&quot;&quot;&gt;&lt;font style=&quot;font-size: 17px;&quot;&gt;Calculate Score&lt;/font&gt;&lt;/li&gt;&lt;li style=&quot;&quot;&gt;&lt;span style=&quot;font-size: 17px;&quot;&gt;Ray Reflection&amp;nbsp;&lt;/span&gt;&lt;/li&gt;&lt;/ul&gt;&lt;/h1&gt;" style="text;html=1;strokeColor=none;fillColor=none;spacing=5;spacingTop=-20;whiteSpace=wrap;overflow=hidden;rounded=0;" vertex="1" parent="1">
          <mxGeometry x="510" y="490" width="190" height="70" as="geometry" />
        </mxCell>
        <mxCell id="Ipxi1V8DxF3I4K90bKjH-69" value="&lt;h1&gt;Blackbox Java Plan&lt;/h1&gt;&lt;div style=&quot;font-size: 24px;&quot;&gt;&lt;b&gt;&lt;u&gt;Tools:&lt;/u&gt;&amp;nbsp;Java (main programming)&lt;/b&gt;&lt;/div&gt;&lt;div style=&quot;font-size: 24px;&quot;&gt;&lt;b&gt;&lt;span style=&quot;white-space: pre;&quot;&gt;&#x9;&lt;/span&gt;&amp;nbsp; &amp;nbsp;JavaFX (Presentation)&lt;br&gt;&lt;/b&gt;&lt;/div&gt;" style="text;html=1;strokeColor=none;fillColor=none;spacing=5;spacingTop=-20;whiteSpace=wrap;overflow=hidden;rounded=0;" vertex="1" parent="1">
          <mxGeometry x="100" y="10" width="550" height="140" as="geometry" />
        </mxCell>
      </root>
    </mxGraphModel>
  </diagram>
</mxfile>
